<svg id="Layer_1" data-name="Layer 1" xmlns="http://www.w3.org/2000/svg" xmlns:xlink="http://www.w3.org/1999/xlink" viewBox="0 0 272 154"><defs><style>.cls-1{fill:url(#linear-gradient);}</style><linearGradient id="linear-gradient" x1="56.64" y1="77.12" x2="242.55" y2="77.12" gradientUnits="userSpaceOnUse"><stop offset="0.32" stop-color="#f7cc46"/><stop offset="0.44" stop-color="#7ffaea"/><stop offset="0.51" stop-color="#95bdff"/><stop offset="0.78" stop-color="#aa2894"/></linearGradient></defs><path d="M214.11,109.46V90.63c0-5.48-1.76-7.5-5.35-7.5-4,0-5.8,2.4-5.8,7v19.33H192.5V90.19c0-4.54-1.63-7.06-5.22-7.06-4.1,0-5.92,2.65-5.92,7.5v18.83H170.9v-35h9.76v3.72h.13c1.83-3.28,5.16-4.91,9.64-4.91s7.87,2.26,10.08,6.23a12.62,12.62,0,0,1,11.08-6.23c7.81,0,13,4.78,13,14.55v21.6Z"/><path class="cls-1" d="M76.61,2.67A17.66,17.66,0,0,1,87,5.74a19.61,19.61,0,0,1,3.47,3.15,17.89,17.89,0,0,1-.11,23.56l0,0-1.15,1.1c-3.23,3.09-4.62,6.23-4,9.08a8.31,8.31,0,0,0,5.07,5.65l.52.23.16.07A5.51,5.51,0,0,1,92.65,50a5.18,5.18,0,0,1,.86,1.4l0,.08.24.7c.39,1.48,3.06,3.52,6.34,4.84a17.35,17.35,0,0,0,6.37,1.37,7.75,7.75,0,0,0,5.23-1.69l.86-.77.1-.06a6.12,6.12,0,0,1,.56-.31,10.4,10.4,0,0,1,15.23,12.32,4.32,4.32,0,0,0-.23,1.33,8.13,8.13,0,0,0,2.61,6.34,8.33,8.33,0,0,0,5.7,2,14.57,14.57,0,0,0,3.21-.39l1-.24,0,0a15.17,15.17,0,0,1,6.45.39l0,0,.93.33a8.91,8.91,0,0,0,3,.5,9,9,0,0,0,4.71-1.31c3.65-2.22,4.92-6.59,3.42-11.68a24.47,24.47,0,0,1,7.62-25.55,24.87,24.87,0,0,1,3.1-2.24,24.41,24.41,0,0,1,35.91,13.26c1.53,4.61,4,7.66,7.1,8.8a8.6,8.6,0,0,0,2.93.51,10,10,0,0,0,5.16-1.5,9.44,9.44,0,0,0,1.8-1.41l.61-.62v0l.05,0a11.41,11.41,0,0,1,1.32-1A10.41,10.41,0,0,1,237,72.23a9.9,9.9,0,0,1-2.26,1.45l-.15.06-.83.36a7.62,7.62,0,0,0-1.44.68,8.21,8.21,0,0,0-3.65,6.28c-.29,2.74.48,5.1,1.35,5.92l.52.49.07.09a3.62,3.62,0,0,1,.39.76,4.43,4.43,0,0,1-2.23,6.08,4.42,4.42,0,0,1-1.85.39,4.52,4.52,0,0,1-2.94-8,4.93,4.93,0,0,1,.76-.53l.08,0c1.31-.8,2.77-3.57,2.85-6.66a7.53,7.53,0,0,0-3.27-6.7l-.72-.56-.13-.1a9.8,9.8,0,0,1-1.21-1.2,6.3,6.3,0,0,1-.58-.68l-.07-.13-.42-.7a10.13,10.13,0,0,0-6.08-4.6,8.1,8.1,0,0,0-2.07-.26,9.07,9.07,0,0,0-4.74,1.39,16.74,16.74,0,0,0-5.06,5.21,24.52,24.52,0,0,1-4.83,5.54,24.6,24.6,0,0,1-15.78,5.82A24.53,24.53,0,0,1,172,80.16a12.94,12.94,0,0,0-5.63-1.42A8.51,8.51,0,0,0,161.87,80a9,9,0,0,0-4,9.12L158,90l0,0a15,15,0,0,1-10.46,16.08c-4.43,1.43-7.16,4.2-7.59,7.7a9.83,9.83,0,0,0,3,7.89l.66.67,0,0a10.13,10.13,0,0,1,2.26,7.44,10.39,10.39,0,0,1-10.37,9.55c-.28,0-.57,0-.85,0l-.3,0-.48,0a19.62,19.62,0,0,0-3-.25,11.74,11.74,0,0,0-6.21,1.6,10.57,10.57,0,0,0-4.75,7.26l-.1.59v0a4.24,4.24,0,0,1-1.4,2.06,4.57,4.57,0,0,1-.57.41,4.43,4.43,0,0,1-5.17-7.17,4.3,4.3,0,0,1,2-1h0l.6,0a11,11,0,0,0,4.9-1.56c2.5-1.52,5.39-4.76,5-11.52l0-.69v-.09a10.27,10.27,0,0,1,3.67-7.84,8.63,8.63,0,0,1,1.74-1.25l.1-.06.93-.38a10.9,10.9,0,0,0,1.6-.81,8.92,8.92,0,0,0,4.5-6.8c.17-2.09-.44-5.28-4.29-8.59a14.81,14.81,0,0,1-1.68-1.68,15.1,15.1,0,0,1-3-13.63l-.05,0,.36-1.06c1.58-4.52.56-7.4-.58-9a8.11,8.11,0,0,0-6-3.3l-.43,0a4.14,4.14,0,0,0-.93.1,9.92,9.92,0,0,1-2.35.27,10.41,10.41,0,0,1-7.94-3.66,9.54,9.54,0,0,1-2.14-4l0-.11-.18-1.1c-.54-3.51-4.16-5.69-6.27-6.67a19.73,19.73,0,0,0-7.72-1.86,4.88,4.88,0,0,0-2.73.61l-.8.57-.1.07a5,5,0,0,1-2.29.55,5.67,5.67,0,0,1-4.3-2.11,5.34,5.34,0,0,1-1-5.71l.06-.1.44-.71a8.34,8.34,0,0,0,.4-7.58c-1.32-2.61-4.37-4.18-8.83-4.55A18.08,18.08,0,0,1,60.51,28.4a17.23,17.23,0,0,1,1.4-18.09,17.87,17.87,0,0,1,3.17-3.5,18.05,18.05,0,0,1,7.1-3.7,20.89,20.89,0,0,1,4.43-.44M223.44,56.35h0M140.82,76.86h0M76.61.74h0a22.46,22.46,0,0,0-4.88.5h0a20.15,20.15,0,0,0-7.86,4.09,20.85,20.85,0,0,0-3.5,3.86,19,19,0,0,0-1.52,20.1,20.27,20.27,0,0,0,2.72,4.16,19.84,19.84,0,0,0,13.56,7c2.62.22,6,1,7.27,3.5a6.36,6.36,0,0,1-.32,5.7l-.42.68-.05.08a1.51,1.51,0,0,0-.15.28,7.23,7.23,0,0,0,1.28,7.74,7.65,7.65,0,0,0,5.77,2.79,6.89,6.89,0,0,0,3.16-.77l.19-.1.1-.07.07,0,.79-.57a3.54,3.54,0,0,1,1.61-.25,18.12,18.12,0,0,1,6.9,1.69c1.42.66,4.77,2.49,5.19,5.21l.18,1.12a1.16,1.16,0,0,0,0,.18l0,.11a11.52,11.52,0,0,0,2.54,4.7,12.33,12.33,0,0,0,12.19,4,2.07,2.07,0,0,1,.5-.06l.24,0a6.21,6.21,0,0,1,4.59,2.48c1.25,1.79,1.37,4.32.33,7.29l-.36,1.06a1.8,1.8,0,0,0-.11.56,16.92,16.92,0,0,0,5.44,16.79c3.25,2.79,3.77,5.33,3.64,7a7.05,7.05,0,0,1-3.59,5.31,10.34,10.34,0,0,1-1.33.67l-.93.39-.17.07-.1.06a10.44,10.44,0,0,0-2.09,1.48,12.29,12.29,0,0,0-4.34,9.3v.82a.28.28,0,0,0,0,.09c.3,4.66-1,7.94-4,9.76a9,9,0,0,1-4,1.28l-.61.05h-.25a6.17,6.17,0,0,0-2.83,1.42,6.27,6.27,0,0,0-2.22,4.32,6.34,6.34,0,0,0,9.64,6,6.52,6.52,0,0,0,.8-.58,6.18,6.18,0,0,0,2-3l0-.11v0s0-.09,0-.14l.1-.59a8.63,8.63,0,0,1,3.85-5.92,9.88,9.88,0,0,1,5.21-1.31,16.85,16.85,0,0,1,2.67.22l.12,0,.44,0,.26,0h.11c.33,0,.66,0,1,0a12.33,12.33,0,0,0,12.29-11.32,12,12,0,0,0-2.7-8.83,1.29,1.29,0,0,0-.16-.17h0l-.63-.64a7.92,7.92,0,0,1-2.43-6.31c.34-2.74,2.56-4.9,6.25-6.09a17.18,17.18,0,0,0,5.94-3.26,16.89,16.89,0,0,0,5.9-14.47,1.61,1.61,0,0,0,0-.49l-.17-.94a7,7,0,0,1,3.13-7.13,6.55,6.55,0,0,1,3.48-.94,11.12,11.12,0,0,1,4.79,1.23,26.35,26.35,0,0,0,33.73-9.59,15,15,0,0,1,4.45-4.61,7.11,7.11,0,0,1,3.74-1.11,6.74,6.74,0,0,1,1.6.2,8.34,8.34,0,0,1,4.89,3.7l.42.72.07.12a.61.61,0,0,0,.07.1,5.51,5.51,0,0,0,.54.68l.16.17a11.45,11.45,0,0,0,1.44,1.43l.08.07.12.09.72.55.09.07a5.58,5.58,0,0,1,2.43,5.06c-.07,2.58-1.28,4.65-1.92,5.06l0,0a6.54,6.54,0,0,0-1.05.73,6.37,6.37,0,0,0-2.26,4.39,6.44,6.44,0,0,0,6.44,7,6.51,6.51,0,0,0,6.46-5.88,6.31,6.31,0,0,0-.66-3.36l-.06-.16a3.84,3.84,0,0,0-.51-.91l0-.07a1.55,1.55,0,0,0-.24-.27l-.51-.49a6.5,6.5,0,0,1-.76-4.32,6.33,6.33,0,0,1,2.73-4.84,6.06,6.06,0,0,1,1.09-.51l.11,0,.8-.34.11,0,.13-.06a12.19,12.19,0,0,0,2.69-1.72,12.33,12.33,0,0,0-15.67-19,1.9,1.9,0,0,0-.33.22h-.08s0,0-.05,0l-.6.61A7.82,7.82,0,0,1,220,56.74,8,8,0,0,1,215.87,58a6.42,6.42,0,0,1-2.27-.4c-2.54-.93-4.6-3.56-5.93-7.6a26.26,26.26,0,0,0-38.74-14.29,25.33,25.33,0,0,0-3.34,2.42,26.37,26.37,0,0,0-8.23,27.55c1.27,4.27.33,7.73-2.57,9.5a7.17,7.17,0,0,1-3.71,1,7,7,0,0,1-2.32-.39l-.94-.33a1.73,1.73,0,0,0-.49-.11,16.82,16.82,0,0,0-4.24-.54,17.37,17.37,0,0,0-2.15.14h-.28l-.31,0-1,.23a12.32,12.32,0,0,1-2.78.34,6.51,6.51,0,0,1-4.43-1.48,6.22,6.22,0,0,1-2-4.87,2.54,2.54,0,0,1,.13-.73,12.32,12.32,0,0,0-18.05-14.59l0,0a3,3,0,0,0-.57.31l0,0a2.26,2.26,0,0,0-.31.23l-.85.76a5.85,5.85,0,0,1-4,1.2,15.49,15.49,0,0,1-5.65-1.22c-3.32-1.33-5-3.06-5.21-3.56l0-.13-.24-.69a.36.36,0,0,0,0-.09l0-.09,0,0a7.51,7.51,0,0,0-1.16-1.89A7.62,7.62,0,0,0,91.8,46.9l-.16-.07-.12,0L91,46.56l-.14-.06a6.48,6.48,0,0,1-3.83-4.23c-.59-2.74,1.55-5.48,3.45-7.29l1.12-1.07h0l.18-.17a19.5,19.5,0,0,0,5-12.95A20.19,20.19,0,0,0,92,7.65a22,22,0,0,0-3.81-3.47A19.67,19.67,0,0,0,76.61.74Z"/><path d="M28.42,109.46v-3.78h-.13c-1.51,3.09-5.67,5-10.26,5C7.69,110.66.51,102.53.51,92,.51,81.62,8,73.31,18,73.31c4.28,0,8.25,1.7,10.26,4.91h.13V74.5H38.88v35Zm0-17.51a8.87,8.87,0,0,0-8.88-8.88A8.92,8.92,0,1,0,28.42,92Z"/><path d="M106.71,84.33c-.06-2-1.51-2.65-3.21-2.65s-3,1-3,2.33c0,1.89,1.7,2.84,6.55,4.1,8.31,2.2,11,5.54,11,10.64,0,7.31-6.3,11.91-14.23,11.91s-13.48-4.47-14.24-11.59H100c.32,2.2,1.89,3.21,4,3.21,1.83,0,3.66-1.07,3.66-2.71,0-1.95-1.2-3-6.43-4.59C92.35,92.27,90,88.8,90,84.71c0-6.93,6.49-11.4,13.54-11.4,7.56,0,12.92,4.15,13.42,11Z"/><path d="M143.31,110.53c-10.64,0-18.83-7.87-18.83-18.58s8.37-18.58,18.83-18.58,18.84,7.87,18.84,18.46C162.15,102.79,153.83,110.53,143.31,110.53ZM151.69,92a8.39,8.39,0,1,0-8.38,8.82A8.61,8.61,0,0,0,151.69,92Z"/><path d="M243.21,95.16c.57,4,3.91,6.62,8.19,6.62a7.33,7.33,0,0,0,6.36-3.28h10.71c-3.34,7.62-9.7,12.1-17.07,12.1a18.51,18.51,0,0,1-18.52-18.52c0-10.08,8.06-18.77,18.33-18.77,10.46,0,18.46,8.25,18.46,19.08a13.22,13.22,0,0,1-.25,2.77Zm16-7a7.83,7.83,0,0,0-8-6,7.74,7.74,0,0,0-7.87,6Z"/><path d="M72.32,109.46l-7-10.83-7.12,10.83H45.61l13.3-18.71L47.13,74.5H59.66l5.67,9.2,5.61-9.2H83.35L71.57,90.75l13.54,18.71Z"/></svg>