<svg xmlns="http://www.w3.org/2000/svg" width="231.925" height="54.02" viewBox="0 0 231.925 54.02">
  <g id="Logo_Chiesi_Base" data-name="Logo Chiesi Base" transform="translate(115.962 27.01)">
    <g id="Raggruppa_13850" data-name="Raggruppa 13850" transform="translate(-115.962 -27.01)">
      <g id="Raggruppa_13849" data-name="Raggruppa 13849">
        <path id="Tracciato_74318" data-name="Tracciato 74318" d="M306.725,61.692l-12.5-21.648-5.415,9.39,4.354,7.538H281.656a6.316,6.316,0,0,1,.083,9.862h11.4l-4.321,7.509,5.4,9.369,12.505-21.659A.361.361,0,0,0,306.725,61.692Z" transform="translate(-245.24 -34.862)" fill="#b5025f"/>
        <path id="Tracciato_74319" data-name="Tracciato 74319" d="M40.8,44.683l-.006.011H20.4L10.2,27.031,20.4,9.368H40.8v0L46.2,0H17.979a5.1,5.1,0,0,0-4.413,2.548L.914,24.463a5.1,5.1,0,0,0,0,5.1L13.6,51.531a4.979,4.979,0,0,0,4.312,2.489H46.189Z" transform="translate(-0.231)" fill="#c6c3bc"/>
      </g>
      <circle id="Ellisse_4397" data-name="Ellisse 4397" cx="4.556" cy="4.556" r="4.556" transform="translate(25.851 22.501)" fill="#b5025f"/>
      <path id="Tracciato_74320" data-name="Tracciato 74320" d="M532.693,85.108c-6.954-.058-10.259-.862-12.219-2.3s-2.969-3.812-3.026-7.113a40.33,40.33,0,0,1,.834-7.625l1.878-9.787a31.307,31.307,0,0,1,2.671-8.365,14.305,14.305,0,0,1,4.151-5.064,15.234,15.234,0,0,1,5.93-2.561,40.911,40.911,0,0,1,8.409-.74q4.324,0,6.8.171a14.778,14.778,0,0,1,4.369.91,5.936,5.936,0,0,1,2.944,2.418,9,9,0,0,1,1.105,4.638,24.921,24.921,0,0,1-.326,4.154l-.471,2.333H547.55l.471-2.333a10.528,10.528,0,0,0,.247-2.162,2.461,2.461,0,0,0-1.752-2.589,25.834,25.834,0,0,0-6.553-.54,28.525,28.525,0,0,0-5.229.37,6.627,6.627,0,0,0-3.049,1.366,7.056,7.056,0,0,0-1.914,2.845,32.134,32.134,0,0,0-1.418,5.15l-1.827,9.446a30.481,30.481,0,0,0-.7,5.577q.048,2.731,1.828,3.67t6.56.939a36.248,36.248,0,0,0,4.089-.171,9.225,9.225,0,0,0,2.889-.61,4.417,4.417,0,0,0,2.045-1.72,10.994,10.994,0,0,0,1.275-3.556l.414-2.333h8.194l-.52,2.788a20.79,20.79,0,0,1-2.41,7,10.183,10.183,0,0,1-3.861,3.856,15.47,15.47,0,0,1-4.952,1.536,50.914,50.914,0,0,1-7.613.409Z" transform="translate(-450.519 -36.173)" fill="#010203"/>
      <path id="Tracciato_74321" data-name="Tracciato 74321" d="M1074.315,173.755h-7.244l5.467-27.91a2.813,2.813,0,0,1,2.761-2.272h4.928Z" transform="translate(-929.025 -124.995)" fill="#010203"/>
      <path id="Tracciato_74322" data-name="Tracciato 74322" d="M1205.923,159.93a15.78,15.78,0,0,1-2.127,5.49,8.406,8.406,0,0,1-3.392,2.989,13.739,13.739,0,0,1-4.427,1.207,61.178,61.178,0,0,1-6.266.259q-6.439,0-9.055-1.753T1178.041,162a37.708,37.708,0,0,1,1.035-7.474,46.854,46.854,0,0,1,2.012-7.244,13.248,13.248,0,0,1,2.932-4.657,11.223,11.223,0,0,1,4.772-2.731,26.225,26.225,0,0,1,7.474-.891q6.668,0,9.256,1.639t2.587,5.95a48.388,48.388,0,0,1-1.323,9.2h-20.754a30.631,30.631,0,0,0-.8,5.117,2.93,2.93,0,0,0,1.207,2.673,8.846,8.846,0,0,0,4.427.776,14.963,14.963,0,0,0,5.433-.719q1.7-.718,2.386-3.708Zm-5.4-9.127a18.681,18.681,0,0,0,.518-3.406,2.277,2.277,0,0,0-1.208-2.357,13.991,13.991,0,0,0-4.714-.517,19.575,19.575,0,0,0-3.794.287,4.445,4.445,0,0,0-2.156,1.006,5,5,0,0,0-1.236,1.926,16.7,16.7,0,0,0-.92,3.061Z" transform="translate(-1025.636 -121.017)" fill="#010203"/>
      <path id="Tracciato_74323" data-name="Tracciato 74323" d="M1444.193,147.066a11.866,11.866,0,0,0,.482-1.914,1.262,1.262,0,0,0-1.037-1.282,22.662,22.662,0,0,0-9.31.128,3.188,3.188,0,0,0-2.326,2.677,6.684,6.684,0,0,0-.221,1.333,1.474,1.474,0,0,0,1.166,1.59,29.681,29.681,0,0,0,5.387.617l1.567.085q2.786.166,4.378.367a10.06,10.06,0,0,1,2.966.837,4.819,4.819,0,0,1,2.144,1.9,5.981,5.981,0,0,1,.7,3.354,16.028,16.028,0,0,1-.525,3.362,11.512,11.512,0,0,1-2.289,4.755,9.762,9.762,0,0,1-3.671,2.7,15.9,15.9,0,0,1-4.635,1.14,51.842,51.842,0,0,1-5.881.188q-3.43-.06-5.4-.211a12.134,12.134,0,0,1-3.521-.759,4.757,4.757,0,0,1-2.375-1.93,6.177,6.177,0,0,1-.749-3.53,18.315,18.315,0,0,1,.724-3.585l7.324,0a16.684,16.684,0,0,0-.439,2.2,1.546,1.546,0,0,0,1.084,1.6,13.725,13.725,0,0,0,4.575.574,16.34,16.34,0,0,0,5.632-.57,3.258,3.258,0,0,0,2.3-2.706,8.93,8.93,0,0,0,.29-1.622,1.912,1.912,0,0,0-1.359-1.884,17.567,17.567,0,0,0-5.47-.735q-6.8-.234-9.258-1.353a4.057,4.057,0,0,1-2.352-4.255,19.594,19.594,0,0,1,.724-4.056,11.755,11.755,0,0,1,2.2-4.757,8.171,8.171,0,0,1,3.49-2.5,15.694,15.694,0,0,1,4.336-.912q2.3-.163,5.965-.1,2.673.047,4.471.223a13.64,13.64,0,0,1,3.433.786,5.466,5.466,0,0,1,2.58,1.905,5.392,5.392,0,0,1,.868,3.444,17.29,17.29,0,0,1-.637,2.892Z" transform="translate(-1237.183 -119.97)" fill="#010203"/>
      <path id="Tracciato_74324" data-name="Tracciato 74324" d="M1668.259,173.755h-7.244l5.447-27.81a2.937,2.937,0,0,1,2.882-2.372h4.827Z" transform="translate(-1446.114 -124.995)" fill="#010203"/>
      <path id="Tracciato_74325" data-name="Tracciato 74325" d="M837,62.792a2.923,2.923,0,0,0-2.918-3.363c-1.242-.054-9.059-1.157-10.17,3.018l-4.284,21.886h-7.244l7.966-40.7a3.446,3.446,0,0,1,3.381-2.784h4.407L825.255,55.58c3.117-1.885,6.423-1.656,8.941-1.656,3.066,0,6.058.608,7.418,1.623a5.56,5.56,0,0,1,2.532,4.58A24.119,24.119,0,0,1,843.7,64.7l-3.767,19.63h-7.128Z" transform="translate(-707.294 -35.561)" fill="#010203"/>
      <ellipse id="Ellisse_4398" data-name="Ellisse 4398" cx="4.112" cy="3.757" rx="4.112" ry="3.757" transform="translate(144.065 8.432) rotate(-30.537)" fill="#010203"/>
      <ellipse id="Ellisse_4399" data-name="Ellisse 4399" cx="4.112" cy="3.757" rx="4.112" ry="3.757" transform="translate(221.024 8.372) rotate(-30.537)" fill="#010203"/>
    </g>
  </g>
</svg>
