<?xml version="1.0" encoding="UTF-8"?><svg id="logo" xmlns="http://www.w3.org/2000/svg" viewBox="0 0 545.63 208.8"><defs><style>.cls-1{fill:none;}.cls-2{fill:#005487;}.cls-3{fill:#00a1df;}.cls-4{fill:#7fa9c3;}</style></defs><path class="cls-3" d="M244.45,67.78c-18.65.98-33.03,16.95-32.05,35.59.98,18.65,16.95,33.03,35.59,32.05,2.71-.14,5.33-.61,7.82-1.35h.03s2.54,4.84,2.54,4.84c1.02,1.96,3.44,2.71,5.4,1.69,1.96-1.02,2.71-3.44,1.69-5.4l-2.26-4.32c10.62-6.19,17.52-17.95,16.83-31.05-.98-18.65-16.95-33.03-35.59-32.05ZM259.49,123.79l-2.88-5.51c-1.02-1.96-3.44-2.71-5.4-1.69-1.96,1.02-2.71,3.44-1.69,5.4l2.51,4.8h-.03c-1.43.34-2.91.56-4.43.64-14.24.75-26.44-10.23-27.19-24.48-.75-14.24,10.23-26.44,24.48-27.19s26.44,10.23,27.19,24.48c.52,9.88-4.61,18.77-12.56,23.54Z"/><path class="cls-3" d="M192.42,135.28c-2.21,0-4-1.79-4-4v-59.36c0-2.21,1.79-4,4-4s4,1.79,4,4v59.36c0,2.21-1.79,4-4,4Z"/><path class="cls-2" d="M382.36,135.28c-2.21,0-4-1.79-4-4v-59.36c0-2.21,1.79-4,4-4s4,1.79,4,4v59.36c0,2.21-1.79,4-4,4Z"/><path class="cls-2" d="M325.37,135.28h-.02c-1.48,0-2.84-.83-3.53-2.14l-31.08-59.36c-1.02-1.96-.27-4.37,1.69-5.4,1.96-1.03,4.37-.27,5.4,1.69l27.57,52.65,28.11-52.68c1.04-1.95,3.46-2.69,5.41-1.65,1.95,1.04,2.69,3.46,1.65,5.41l-31.67,59.36c-.7,1.3-2.05,2.12-3.53,2.12Z"/><path class="cls-2" d="M452.25,121.82h-19.28c-2.21,0-4-1.79-4-4s1.79-4,4-4h19.28c2.21,0,4,1.79,4,4s-1.79,4-4,4Z"/><path class="cls-2" d="M473.9,135.28c-1.44,0-2.83-.78-3.55-2.15l-27.57-52.65-28.11,52.68c-1.04,1.95-3.46,2.69-5.41,1.65-1.95-1.04-2.69-3.46-1.65-5.41l31.67-59.36c.7-1.31,2.06-2.16,3.54-2.12,1.48,0,2.84.83,3.53,2.14l31.08,59.36c1.02,1.96.27,4.37-1.69,5.4-.59.31-1.23.46-1.85.46Z"/><path class="cls-2" d="M165.23,124.16h-19.63c-1.37,2.49-2.96,4.78-4.74,6.81h24.37c1.87,0,3.41-1.53,3.41-3.41h0c0-1.87-1.53-3.41-3.41-3.41Z"/><path class="cls-2" d="M165.23,111.18h-14.95c-.47,2.36-1.11,4.64-1.9,6.81h16.85c1.87,0,3.41-1.53,3.41-3.41s-1.53-3.41-3.41-3.41Z"/><path class="cls-2" d="M165.23,98.2h-14.11c.07,1.06.11,2.13.11,3.21,0,1.21-.05,2.41-.13,3.6h14.13c1.87,0,3.41-1.53,3.41-3.41s-1.53-3.41-3.41-3.41Z"/><path class="cls-2" d="M165.23,85.22h-16.71c.77,2.17,1.38,4.45,1.83,6.81h14.88c1.87,0,3.41-1.53,3.41-3.41h0c0-1.87-1.53-3.41-3.41-3.41Z"/><path class="cls-2" d="M165.23,72.24h-24.04c1.73,2.04,3.29,4.32,4.62,6.81h19.42c1.87,0,3.41-1.53,3.41-3.41s-1.53-3.41-3.41-3.41Z"/><path class="cls-3" d="M100.32,127.56h0c0-1.87,1.53-3.41,3.41-3.41h-13.42c-1.87,0-3.41,1.53-3.41,3.41h0c0,1.87,1.53,3.41,3.41,3.41h13.42c-1.87,0-3.41-1.53-3.41-3.41Z"/><path class="cls-4" d="M145.59,124.16h-41.87c-1.87,0-3.41,1.53-3.41,3.41h0c0,1.87,1.53,3.41,3.41,3.41h37.13c1.78-2.03,3.36-4.32,4.74-6.81Z"/><path class="cls-3" d="M90.81,115.3c-.46-2.18,1.22-4.13,3.33-4.13h-13.42c-1.87,0-3.41,1.53-3.41,3.41s1.53,3.41,3.41,3.41h13.53c-1.63,0-3.11-1.09-3.44-2.68Z"/><path class="cls-4" d="M150.28,111.18h-56.13c-2.11,0-3.79,1.94-3.33,4.13.33,1.59,1.82,2.68,3.44,2.68h54.12c.79-2.17,1.43-4.45,1.9-6.81Z"/><path class="cls-3" d="M81.23,102.32c-.46-2.18,1.22-4.13,3.33-4.13h-13.42c-1.87,0-3.41,1.53-3.41,3.41s1.53,3.41,3.41,3.41h13.53c-1.63,0-3.11-1.09-3.44-2.68Z"/><path class="cls-4" d="M81.23,102.32c.33,1.59,1.82,2.68,3.44,2.68h66.43c.08-1.19.13-2.39.13-3.6,0-1.08-.04-2.15-.11-3.21h-66.56c-2.11,0-3.79,1.94-3.33,4.13Z"/><path class="cls-3" d="M85.9,88.62c0-1.87,1.53-3.41,3.41-3.41h-13.42c-1.87,0-3.41,1.53-3.41,3.41h0c0,1.87,1.53,3.41,3.41,3.41h13.42c-1.87,0-3.41-1.53-3.41-3.41Z"/><path class="cls-4" d="M148.52,85.22h-59.21c-1.87,0-3.41,1.53-3.41,3.41s1.53,3.41,3.41,3.41h61.04c-.45-2.36-1.07-4.64-1.83-6.81Z"/><path class="cls-3" d="M110.64,76.37c-.46-2.18,1.22-4.13,3.33-4.13h-13.42c-1.87,0-3.41,1.53-3.41,3.41s1.53,3.41,3.41,3.41h13.53c-1.63,0-3.11-1.09-3.44-2.68Z"/><path class="cls-4" d="M141.19,72.24h-27.21c-2.11,0-3.79,1.94-3.33,4.13.33,1.59,1.82,2.68,3.44,2.68h31.73c-1.34-2.49-2.89-4.77-4.62-6.81Z"/><rect class="cls-1" width="545.63" height="208.8"/></svg>